<svg xmlns="http://www.w3.org/2000/svg" viewBox="0 0 256 256" fill="none">
  <circle cx="128" cy="128" r="128" fill="#FF4500"/>
  <path d="M213.15 129.22c0-8.08-6.58-14.66-14.66-14.66-3.94 0-7.52 1.56-10.16 4.09-10.01-7.21-23.81-11.86-39.07-12.47l6.64-31.27 21.65 4.58c.14 5.59 4.75 10.09 10.4 10.09 5.76 0 10.43-4.68 10.43-10.43s-4.67-10.43-10.43-10.43c-4.09 0-7.62 2.35-9.33 5.77l-24.17-5.11c-.74-.16-1.49.05-2.03.56-.54.51-.83 1.24-.77 1.98l7.39 34.85c-15.42.51-29.38 5.15-39.51 12.4-2.64-2.49-6.18-4.02-10.08-4.02-8.08 0-14.66 6.58-14.66 14.66 0 5.79 3.36 10.79 8.24 13.18-.23 1.62-.35 3.27-.35 4.95 0 25.17 29.29 45.59 65.36 45.59 36.06 0 65.36-20.42 65.36-45.59 0-1.65-.12-3.27-.33-4.87 4.97-2.37 8.4-7.42 8.4-13.27zm-98.97 10.43c0-5.76 4.68-10.43 10.43-10.43s10.43 4.68 10.43 10.43c0 5.76-4.68 10.43-10.43 10.43-5.76 0-10.43-4.67-10.43-10.43zm58.45 27.63c-7.15 7.15-20.83 7.68-27.63 7.68-6.81 0-20.49-.54-27.63-7.68-1.21-1.21-1.21-3.18 0-4.39 1.21-1.21 3.18-1.21 4.39 0 4.51 4.51 14.27 6.12 23.24 6.12s18.73-1.61 23.24-6.12c1.21-1.21 3.18-1.21 4.39 0 1.21 1.21 1.21 3.18 0 4.39zm-2.05-17.2c-5.76 0-10.43-4.68-10.43-10.43 0-5.76 4.68-10.43 10.43-10.43 5.76 0 10.43 4.68 10.43 10.43.01 5.76-4.67 10.43-10.43 10.43z" fill="#FFF"/>
</svg>
